<?xml version="1.0" encoding="UTF-8"?>
<svg xmlns="http://www.w3.org/2000/svg" xmlns:xlink="http://www.w3.org/1999/xlink" width="200px" height="225px" viewBox="0 0 200 225" version="1.1">
<defs>
<clipPath id="clip1">
  <path d="M 40 122.097656 L 160 122.097656 L 160 139.285156 L 40 139.285156 Z M 40 122.097656 "/>
</clipPath>
<clipPath id="clip2">
  <path d="M 75.898438 140.796875 L 124.101562 140.796875 L 124.101562 144.289062 L 75.898438 144.289062 Z M 75.898438 140.796875 "/>
</clipPath>
<clipPath id="clip3">
  <path d="M 82.101562 80.707031 L 117.894531 80.707031 L 117.894531 116.617188 L 82.101562 116.617188 Z M 82.101562 80.707031 "/>
</clipPath>
</defs>
<g id="surface1">
<path style=" stroke:none;fill-rule:nonzero;fill:rgb(41.176471%,21.176471%,96.078431%);fill-opacity:1;" d="M 184.175781 70.078125 C 178.691406 63.390625 168.3125 59.953125 157.300781 56.324219 C 152.578125 54.761719 147.703125 53.140625 142.9375 51.175781 C 138.128906 49.195312 133.402344 46.640625 128.804688 44.195312 C 119.457031 39.175781 109.796875 33.984375 99.988281 33.984375 C 90.199219 33.984375 80.539062 39.175781 71.195312 44.195312 C 66.59375 46.664062 61.847656 49.214844 57.039062 51.199219 C 52.292969 53.160156 47.398438 54.761719 42.671875 56.34375 C 31.660156 59.996094 21.28125 63.433594 15.796875 70.097656 C 8.480469 79.023438 8.648438 92.25 8.816406 106.234375 C 8.835938 108.34375 8.859375 110.433594 8.859375 112.5 C 8.859375 114.566406 8.835938 116.65625 8.796875 118.765625 C 8.625 132.773438 8.457031 145.976562 15.777344 154.921875 C 21.261719 161.585938 31.640625 165.027344 42.632812 168.675781 C 47.355469 170.238281 52.230469 171.859375 57.019531 173.824219 C 61.828125 175.804688 66.550781 178.335938 71.128906 180.804688 C 80.496094 185.847656 90.15625 191.035156 99.945312 191.035156 C 109.753906 191.035156 119.417969 185.847656 128.761719 180.824219 C 133.359375 178.359375 138.085938 175.804688 142.894531 173.84375 C 147.640625 171.882812 152.492188 170.277344 157.195312 168.71875 C 168.273438 165.046875 178.652344 161.609375 184.136719 154.941406 C 191.453125 146.019531 191.285156 132.792969 191.117188 118.808594 C 191.097656 116.675781 191.054688 114.589844 191.054688 112.519531 C 191.054688 110.453125 191.074219 108.367188 191.117188 106.277344 C 191.347656 92.226562 191.519531 79 184.175781 70.078125 Z M 190.96875 64.507812 C 181.140625 52.527344 162.34375 49.679688 146.289062 43.054688 C 131.925781 37.148438 117.308594 25.1875 100.007812 25.1875 C 82.710938 25.1875 68.09375 37.148438 53.726562 43.054688 C 37.652344 49.679688 18.878906 52.527344 9.046875 64.507812 C -1.625 77.503906 0.105469 95.835938 0.105469 112.5 C 0.105469 129.144531 -1.625 147.496094 9.027344 160.492188 C 18.855469 172.472656 37.652344 175.320312 53.707031 181.945312 C 68.070312 187.871094 82.691406 199.8125 99.988281 199.8125 C 117.285156 199.8125 131.90625 187.871094 146.269531 181.945312 C 162.34375 175.320312 181.117188 172.472656 190.949219 160.492188 C 201.601562 147.496094 199.871094 129.164062 199.871094 112.5 C 199.914062 95.835938 201.644531 77.503906 190.96875 64.507812 Z M 193.671875 118.703125 C 193.859375 133.214844 194.027344 146.863281 186.117188 156.503906 C 180.167969 163.738281 169.453125 167.304688 158.105469 171.058594 C 153.378906 172.621094 148.546875 174.222656 143.90625 176.144531 C 139.222656 178.0625 134.5625 180.574219 130.046875 183 C 120.386719 188.1875 110.449219 193.523438 100.007812 193.523438 C 89.566406 193.523438 79.632812 188.1875 70.011719 183.019531 C 65.476562 180.574219 60.792969 178.0625 56.109375 176.144531 C 51.40625 174.203125 46.574219 172.597656 41.894531 171.058594 C 30.523438 167.304688 19.804688 163.738281 13.878906 156.503906 C 5.988281 146.882812 6.15625 133.214844 6.328125 118.742188 C 6.347656 116.632812 6.390625 114.566406 6.390625 112.5 C 6.390625 110.433594 6.367188 108.367188 6.347656 106.253906 C 6.15625 91.785156 5.988281 78.117188 13.898438 68.496094 C 19.847656 61.261719 30.566406 57.714844 41.914062 53.941406 C 46.617188 52.378906 51.449219 50.777344 56.132812 48.855469 C 60.816406 46.917969 65.496094 44.40625 70.035156 41.980469 C 79.652344 36.8125 89.609375 31.453125 100.03125 31.453125 C 110.449219 31.453125 120.40625 36.789062 130.027344 41.957031 C 134.5625 44.40625 139.246094 46.917969 143.929688 48.835938 C 148.613281 50.777344 153.464844 52.359375 158.125 53.917969 C 169.472656 57.675781 180.210938 61.238281 186.140625 68.476562 C 194.050781 78.117188 193.882812 91.761719 193.691406 106.234375 C 193.671875 108.367188 193.628906 110.433594 193.628906 112.480469 C 193.628906 114.546875 193.648438 116.613281 193.671875 118.703125 Z M 193.671875 118.703125 "/>
<g clip-path="url(#clip1)" clip-rule="nonzero">
<path style=" stroke:none;fill-rule:nonzero;fill:rgb(100%,100%,100%);fill-opacity:1;" d="M 45.378906 137.375 L 41.707031 129.292969 L 41.917969 137.824219 L 40 138.074219 L 40.457031 126.539062 L 43.300781 126.171875 L 47.058594 134.441406 L 48.617188 125.480469 L 51.460938 125.113281 L 54.523438 136.191406 L 51.355469 136.601562 L 49.363281 128.523438 L 48.222656 137.007812 Z M 57.820312 131.523438 C 58.152344 131.566406 58.484375 131.589844 58.8125 131.601562 C 59.140625 131.609375 59.46875 131.601562 59.800781 131.566406 C 60.148438 131.535156 60.464844 131.46875 60.753906 131.378906 C 61.046875 131.28125 61.292969 131.144531 61.496094 130.96875 C 61.695312 130.792969 61.847656 130.570312 61.945312 130.300781 C 62.046875 130.03125 62.078125 129.707031 62.042969 129.324219 C 62.011719 129.015625 61.941406 128.734375 61.832031 128.488281 C 61.722656 128.238281 61.578125 128.03125 61.398438 127.863281 C 61.214844 127.695312 60.996094 127.570312 60.742188 127.496094 C 60.492188 127.417969 60.207031 127.394531 59.886719 127.425781 C 59.589844 127.453125 59.324219 127.535156 59.097656 127.667969 C 58.871094 127.800781 58.675781 127.96875 58.511719 128.175781 C 58.351562 128.378906 58.214844 128.609375 58.113281 128.867188 C 58.007812 129.125 57.925781 129.394531 57.867188 129.671875 C 57.808594 129.945312 57.777344 130.222656 57.769531 130.496094 C 57.757812 130.773438 57.765625 131.035156 57.789062 131.273438 C 57.792969 131.316406 57.796875 131.359375 57.800781 131.398438 C 57.804688 131.441406 57.808594 131.484375 57.820312 131.523438 Z M 64.195312 129.089844 C 64.230469 129.460938 64.203125 129.796875 64.113281 130.101562 C 64.019531 130.40625 63.882812 130.675781 63.695312 130.917969 C 63.507812 131.15625 63.289062 131.367188 63.03125 131.546875 C 62.773438 131.722656 62.492188 131.878906 62.195312 132.003906 C 61.894531 132.132812 61.582031 132.234375 61.261719 132.308594 C 60.9375 132.382812 60.621094 132.433594 60.308594 132.464844 C 59.917969 132.503906 59.527344 132.511719 59.136719 132.496094 C 58.75 132.476562 58.363281 132.425781 57.980469 132.34375 C 58.070312 132.683594 58.195312 133.003906 58.351562 133.304688 C 58.507812 133.601562 58.703125 133.859375 58.933594 134.074219 C 59.167969 134.285156 59.441406 134.445312 59.761719 134.550781 C 60.082031 134.65625 60.453125 134.6875 60.871094 134.648438 C 61.148438 134.621094 61.410156 134.554688 61.65625 134.445312 C 61.898438 134.335938 62.117188 134.195312 62.3125 134.023438 C 62.507812 133.847656 62.675781 133.648438 62.816406 133.425781 C 62.953125 133.199219 63.058594 132.953125 63.132812 132.6875 L 64.324219 133 C 64.191406 133.429688 63.988281 133.8125 63.71875 134.140625 C 63.445312 134.472656 63.132812 134.757812 62.769531 134.988281 C 62.410156 135.222656 62.019531 135.410156 61.601562 135.546875 C 61.183594 135.683594 60.765625 135.773438 60.34375 135.8125 C 59.652344 135.878906 59 135.828125 58.390625 135.648438 C 57.78125 135.472656 57.242188 135.195312 56.777344 134.820312 C 56.3125 134.441406 55.929688 133.972656 55.628906 133.414062 C 55.332031 132.855469 55.152344 132.230469 55.082031 131.539062 C 55.015625 130.847656 55.074219 130.199219 55.257812 129.59375 C 55.441406 128.988281 55.722656 128.453125 56.109375 127.992188 C 56.492188 127.53125 56.964844 127.15625 57.527344 126.863281 C 58.09375 126.574219 58.722656 126.394531 59.414062 126.328125 C 59.75 126.296875 60.097656 126.285156 60.449219 126.296875 C 60.808594 126.308594 61.15625 126.351562 61.496094 126.421875 C 61.835938 126.492188 62.164062 126.59375 62.472656 126.726562 C 62.78125 126.859375 63.054688 127.035156 63.296875 127.25 C 63.539062 127.46875 63.738281 127.726562 63.898438 128.03125 C 64.054688 128.332031 64.15625 128.6875 64.195312 129.089844 Z M 69.171875 126.769531 L 69.785156 134.816406 L 67.113281 135.019531 L 66.503906 126.972656 L 64.847656 127.097656 L 64.765625 126.042969 L 66.421875 125.917969 L 66.167969 122.566406 L 68.835938 122.363281 L 69.09375 125.714844 L 71.851562 125.503906 L 71.933594 126.558594 Z M 82.066406 124.933594 L 82.578125 134.046875 L 79.910156 134.199219 L 79.847656 133.109375 C 79.554688 133.558594 79.195312 133.898438 78.761719 134.132812 C 78.328125 134.367188 77.847656 134.496094 77.316406 134.527344 C 76.621094 134.566406 75.992188 134.476562 75.433594 134.257812 C 74.871094 134.042969 74.390625 133.730469 73.988281 133.324219 C 73.585938 132.914062 73.265625 132.429688 73.035156 131.863281 C 72.804688 131.292969 72.667969 130.675781 72.632812 130.015625 C 72.59375 129.351562 72.660156 128.726562 72.828125 128.136719 C 72.992188 127.546875 73.253906 127.027344 73.609375 126.574219 C 73.960938 126.125 74.40625 125.761719 74.941406 125.484375 C 75.472656 125.207031 76.085938 125.050781 76.78125 125.011719 C 77.132812 124.992188 77.472656 125.023438 77.796875 125.109375 C 78.121094 125.199219 78.421875 125.332031 78.699219 125.507812 C 78.976562 125.683594 79.222656 125.902344 79.4375 126.160156 C 79.65625 126.421875 79.832031 126.714844 79.96875 127.039062 L 81.039062 124.992188 Z M 79.636719 129.621094 C 79.621094 129.386719 79.597656 129.136719 79.558594 128.875 C 79.519531 128.613281 79.464844 128.355469 79.394531 128.101562 C 79.324219 127.847656 79.226562 127.605469 79.109375 127.375 C 78.996094 127.148438 78.851562 126.945312 78.679688 126.773438 C 78.511719 126.601562 78.308594 126.46875 78.078125 126.378906 C 77.847656 126.285156 77.578125 126.246094 77.277344 126.261719 C 76.980469 126.28125 76.722656 126.347656 76.507812 126.46875 C 76.292969 126.589844 76.109375 126.746094 75.964844 126.9375 C 75.816406 127.125 75.699219 127.34375 75.605469 127.585938 C 75.519531 127.828125 75.453125 128.078125 75.410156 128.339844 C 75.367188 128.601562 75.339844 128.863281 75.332031 129.125 C 75.320312 129.386719 75.324219 129.632812 75.335938 129.863281 C 75.347656 130.097656 75.375 130.34375 75.414062 130.601562 C 75.453125 130.863281 75.507812 131.125 75.582031 131.378906 C 75.652344 131.632812 75.746094 131.875 75.859375 132.105469 C 75.976562 132.335938 76.121094 132.539062 76.289062 132.710938 C 76.457031 132.882812 76.652344 133.019531 76.878906 133.113281 C 77.109375 133.207031 77.371094 133.246094 77.667969 133.230469 C 77.945312 133.214844 78.183594 133.144531 78.390625 133.019531 C 78.597656 132.894531 78.777344 132.734375 78.925781 132.535156 C 79.074219 132.335938 79.199219 132.113281 79.296875 131.867188 C 79.394531 131.617188 79.46875 131.363281 79.523438 131.101562 C 79.578125 130.839844 79.613281 130.582031 79.628906 130.324219 C 79.644531 130.066406 79.648438 129.832031 79.636719 129.621094 Z M 89.789062 127.371094 L 89.839844 128.824219 L 84.535156 129.007812 L 84.484375 127.554688 Z M 96.492188 123.78125 L 96.636719 133.703125 L 93.5 133.75 L 93.355469 123.824219 L 90.261719 123.867188 L 90.238281 122.414062 L 99.574219 122.28125 L 99.59375 123.734375 Z M 109.808594 129.167969 C 109.804688 129.644531 109.738281 130.085938 109.605469 130.503906 C 109.476562 130.917969 109.296875 131.300781 109.070312 131.652344 C 108.84375 132.003906 108.574219 132.320312 108.257812 132.597656 C 107.9375 132.878906 107.589844 133.113281 107.210938 133.304688 C 106.832031 133.5 106.429688 133.644531 106 133.746094 C 105.566406 133.847656 105.125 133.898438 104.671875 133.894531 C 104.222656 133.890625 103.78125 133.835938 103.355469 133.722656 C 102.929688 133.617188 102.527344 133.464844 102.152344 133.265625 C 101.777344 133.066406 101.433594 132.828125 101.121094 132.542969 C 100.804688 132.257812 100.539062 131.9375 100.316406 131.582031 C 100.097656 131.226562 99.925781 130.839844 99.800781 130.417969 C 99.675781 130.003906 99.617188 129.558594 99.621094 129.085938 C 99.625 128.621094 99.691406 128.175781 99.820312 127.757812 C 99.953125 127.339844 100.128906 126.957031 100.355469 126.605469 C 100.582031 126.253906 100.855469 125.9375 101.175781 125.65625 C 101.492188 125.378906 101.839844 125.140625 102.21875 124.949219 C 102.597656 124.761719 103 124.613281 103.425781 124.511719 C 103.855469 124.410156 104.296875 124.359375 104.75 124.363281 C 105.199219 124.367188 105.640625 124.421875 106.070312 124.53125 C 106.5 124.640625 106.902344 124.792969 107.273438 124.988281 C 107.652344 125.1875 107.996094 125.429688 108.308594 125.714844 C 108.625 126 108.890625 126.320312 109.113281 126.675781 C 109.332031 127.027344 109.503906 127.414062 109.628906 127.835938 C 109.75 128.257812 109.8125 128.699219 109.808594 129.167969 Z M 107.089844 129.144531 C 107.089844 128.894531 107.078125 128.625 107.050781 128.34375 C 107.027344 128.0625 106.980469 127.785156 106.914062 127.515625 C 106.847656 127.242188 106.753906 126.980469 106.640625 126.726562 C 106.523438 126.476562 106.375 126.257812 106.207031 126.070312 C 106.03125 125.882812 105.824219 125.730469 105.582031 125.613281 C 105.34375 125.5 105.0625 125.441406 104.738281 125.4375 C 104.433594 125.4375 104.160156 125.492188 103.921875 125.605469 C 103.683594 125.71875 103.476562 125.871094 103.300781 126.0625 C 103.121094 126.253906 102.972656 126.476562 102.855469 126.726562 C 102.730469 126.980469 102.632812 127.242188 102.558594 127.511719 C 102.484375 127.78125 102.429688 128.054688 102.394531 128.332031 C 102.359375 128.609375 102.339844 128.867188 102.339844 129.109375 C 102.335938 129.351562 102.351562 129.609375 102.382812 129.886719 C 102.410156 130.164062 102.460938 130.441406 102.53125 130.714844 C 102.605469 130.988281 102.699219 131.253906 102.816406 131.503906 C 102.929688 131.757812 103.078125 131.976562 103.253906 132.171875 C 103.425781 132.363281 103.632812 132.519531 103.867188 132.636719 C 104.105469 132.757812 104.375 132.816406 104.683594 132.820312 C 105 132.824219 105.277344 132.765625 105.519531 132.652344 C 105.765625 132.542969 105.976562 132.394531 106.152344 132.207031 C 106.332031 132.015625 106.476562 131.800781 106.597656 131.554688 C 106.714844 131.308594 106.8125 131.046875 106.882812 130.773438 C 106.957031 130.5 107.007812 130.222656 107.039062 129.945312 C 107.070312 129.664062 107.085938 129.398438 107.089844 129.144531 Z M 111.003906 129.886719 C 111.015625 129.472656 111.066406 129.042969 111.152344 128.597656 C 111.238281 128.152344 111.355469 127.707031 111.507812 127.265625 C 111.652344 126.820312 111.832031 126.386719 112.035156 125.953125 C 112.238281 125.523438 112.464844 125.113281 112.714844 124.71875 L 114.667969 124.785156 C 114.523438 125.175781 114.390625 125.582031 114.273438 126.007812 C 114.15625 126.433594 114.058594 126.859375 113.972656 127.289062 C 113.886719 127.714844 113.816406 128.132812 113.761719 128.542969 C 113.710938 128.949219 113.675781 129.332031 113.664062 129.6875 C 113.660156 129.890625 113.660156 130.109375 113.667969 130.347656 C 113.683594 130.582031 113.707031 130.816406 113.746094 131.050781 C 113.785156 131.289062 113.84375 131.515625 113.925781 131.734375 C 114.003906 131.953125 114.109375 132.148438 114.242188 132.320312 C 114.371094 132.488281 114.535156 132.625 114.730469 132.726562 C 114.925781 132.832031 115.15625 132.890625 115.425781 132.898438 C 115.6875 132.90625 115.921875 132.855469 116.136719 132.746094 C 116.347656 132.632812 116.535156 132.484375 116.699219 132.296875 C 116.867188 132.109375 117.007812 131.894531 117.128906 131.648438 C 117.246094 131.40625 117.34375 131.15625 117.425781 130.898438 C 117.503906 130.640625 117.566406 130.386719 117.609375 130.136719 C 117.652344 129.890625 117.675781 129.664062 117.683594 129.464844 L 117.835938 124.890625 L 120.503906 124.980469 L 120.199219 134.101562 L 119.171875 134.066406 L 118.019531 131.902344 C 117.855469 132.25 117.660156 132.5625 117.429688 132.84375 C 117.203125 133.125 116.945312 133.359375 116.65625 133.558594 C 116.375 133.753906 116.058594 133.898438 115.714844 134 C 115.371094 134.097656 115.003906 134.140625 114.609375 134.128906 C 113.976562 134.109375 113.429688 133.984375 112.964844 133.765625 C 112.503906 133.542969 112.125 133.246094 111.828125 132.875 C 111.53125 132.5 111.3125 132.058594 111.175781 131.550781 C 111.039062 131.042969 110.980469 130.488281 111.003906 129.886719 Z M 130.539062 126.359375 L 128.898438 128.761719 C 128.847656 128.546875 128.777344 128.304688 128.695312 128.035156 C 128.609375 127.765625 128.5 127.511719 128.367188 127.277344 C 128.234375 127.039062 128.066406 126.835938 127.871094 126.667969 C 127.671875 126.5 127.441406 126.410156 127.171875 126.394531 C 126.925781 126.378906 126.710938 126.433594 126.523438 126.546875 C 126.332031 126.664062 126.167969 126.820312 126.03125 127.015625 C 125.894531 127.210938 125.777344 127.433594 125.679688 127.683594 C 125.582031 127.933594 125.503906 128.1875 125.445312 128.445312 C 125.386719 128.703125 125.339844 128.953125 125.308594 129.191406 C 125.28125 129.429688 125.261719 129.632812 125.25 129.804688 L 124.988281 134.375 L 122.3125 134.222656 L 122.839844 125.109375 L 123.867188 125.167969 L 124.824219 127.351562 C 124.992188 127.019531 125.175781 126.714844 125.382812 126.4375 C 125.589844 126.164062 125.824219 125.929688 126.082031 125.734375 C 126.339844 125.542969 126.628906 125.398438 126.949219 125.300781 C 127.269531 125.203125 127.625 125.164062 128.019531 125.1875 C 128.226562 125.199219 128.453125 125.230469 128.703125 125.277344 C 128.953125 125.324219 129.199219 125.398438 129.433594 125.492188 C 129.671875 125.589844 129.886719 125.707031 130.085938 125.851562 C 130.285156 125.996094 130.4375 126.164062 130.539062 126.359375 Z M 134.722656 123.65625 C 134.707031 123.859375 134.65625 124.042969 134.570312 124.214844 C 134.480469 124.390625 134.363281 124.535156 134.222656 124.65625 C 134.082031 124.78125 133.921875 124.875 133.734375 124.933594 C 133.550781 125 133.359375 125.023438 133.160156 125.011719 C 132.960938 124.996094 132.777344 124.945312 132.605469 124.851562 C 132.433594 124.765625 132.289062 124.648438 132.167969 124.507812 C 132.046875 124.367188 131.953125 124.207031 131.886719 124.019531 C 131.828125 123.839844 131.800781 123.644531 131.816406 123.445312 C 131.832031 123.246094 131.882812 123.0625 131.972656 122.890625 C 132.0625 122.71875 132.175781 122.574219 132.316406 122.449219 C 132.457031 122.328125 132.617188 122.238281 132.800781 122.175781 C 132.984375 122.109375 133.171875 122.085938 133.371094 122.101562 C 133.570312 122.117188 133.757812 122.167969 133.929688 122.257812 C 134.105469 122.347656 134.253906 122.460938 134.375 122.601562 C 134.492188 122.742188 134.585938 122.902344 134.652344 123.085938 C 134.714844 123.265625 134.738281 123.457031 134.722656 123.65625 Z M 134.445312 125.855469 L 133.785156 134.953125 L 131.109375 134.757812 L 131.773438 125.660156 Z M 144.015625 132.945312 C 143.980469 133.34375 143.890625 133.695312 143.746094 133.992188 C 143.601562 134.292969 143.421875 134.546875 143.203125 134.757812 C 142.980469 134.96875 142.726562 135.136719 142.441406 135.265625 C 142.152344 135.394531 141.847656 135.496094 141.527344 135.5625 C 141.210938 135.628906 140.875 135.667969 140.53125 135.675781 C 140.1875 135.6875 139.847656 135.679688 139.511719 135.648438 C 139.058594 135.605469 138.660156 135.542969 138.324219 135.453125 C 137.980469 135.363281 137.660156 135.238281 137.355469 135.082031 C 137.050781 134.925781 136.753906 134.730469 136.457031 134.496094 C 136.164062 134.265625 135.839844 133.984375 135.484375 133.65625 L 137.152344 132.527344 C 137.269531 132.808594 137.433594 133.066406 137.644531 133.308594 C 137.859375 133.546875 138.085938 133.753906 138.324219 133.9375 C 138.5625 134.117188 138.792969 134.257812 139.023438 134.363281 C 139.25 134.46875 139.441406 134.53125 139.585938 134.542969 C 139.707031 134.554688 139.84375 134.5625 139.996094 134.566406 C 140.148438 134.574219 140.304688 134.574219 140.464844 134.5625 C 140.625 134.554688 140.78125 134.535156 140.9375 134.5 C 141.09375 134.464844 141.234375 134.414062 141.363281 134.34375 C 141.488281 134.273438 141.589844 134.179688 141.671875 134.0625 C 141.753906 133.945312 141.804688 133.796875 141.820312 133.625 C 141.835938 133.449219 141.804688 133.289062 141.726562 133.148438 C 141.644531 133.003906 141.535156 132.875 141.398438 132.761719 C 141.261719 132.652344 141.101562 132.550781 140.917969 132.464844 C 140.734375 132.378906 140.550781 132.300781 140.363281 132.230469 C 140.175781 132.164062 139.996094 132.101562 139.820312 132.046875 C 139.644531 131.988281 139.496094 131.9375 139.367188 131.886719 C 139.132812 131.796875 138.882812 131.703125 138.621094 131.609375 C 138.359375 131.515625 138.101562 131.410156 137.847656 131.296875 C 137.597656 131.179688 137.355469 131.046875 137.125 130.898438 C 136.898438 130.75 136.703125 130.582031 136.539062 130.390625 C 136.375 130.199219 136.25 129.976562 136.164062 129.730469 C 136.078125 129.480469 136.046875 129.195312 136.078125 128.875 C 136.132812 128.289062 136.292969 127.804688 136.5625 127.429688 C 136.832031 127.054688 137.167969 126.765625 137.574219 126.5625 C 137.976562 126.359375 138.429688 126.230469 138.925781 126.175781 C 139.421875 126.121094 139.921875 126.117188 140.425781 126.160156 C 140.773438 126.191406 141.136719 126.261719 141.511719 126.367188 C 141.890625 126.472656 142.25 126.613281 142.601562 126.785156 C 142.949219 126.957031 143.273438 127.15625 143.570312 127.382812 C 143.867188 127.609375 144.109375 127.863281 144.292969 128.140625 L 142.628906 129.269531 C 142.542969 128.945312 142.414062 128.664062 142.25 128.421875 C 142.082031 128.179688 141.898438 127.976562 141.691406 127.808594 C 141.488281 127.648438 141.277344 127.519531 141.050781 127.429688 C 140.832031 127.34375 140.625 127.289062 140.429688 127.269531 C 140.242188 127.253906 140.027344 127.242188 139.792969 127.238281 C 139.554688 127.230469 139.328125 127.253906 139.113281 127.3125 C 138.898438 127.367188 138.714844 127.460938 138.554688 127.597656 C 138.394531 127.734375 138.304688 127.933594 138.28125 128.195312 C 138.261719 128.382812 138.292969 128.550781 138.371094 128.691406 C 138.445312 128.832031 138.546875 128.957031 138.679688 129.070312 C 138.8125 129.179688 138.964844 129.273438 139.140625 129.355469 C 139.316406 129.4375 139.496094 129.511719 139.679688 129.582031 C 139.863281 129.648438 140.042969 129.707031 140.21875 129.761719 C 140.394531 129.8125 140.550781 129.867188 140.6875 129.921875 C 140.921875 130.011719 141.171875 130.101562 141.4375 130.199219 C 141.699219 130.296875 141.960938 130.402344 142.214844 130.515625 C 142.46875 130.632812 142.710938 130.765625 142.945312 130.910156 C 143.175781 131.054688 143.375 131.222656 143.542969 131.417969 C 143.710938 131.613281 143.839844 131.835938 143.929688 132.085938 C 144.015625 132.332031 144.042969 132.621094 144.015625 132.945312 Z M 159.949219 132.433594 C 159.871094 133.054688 159.722656 133.691406 159.496094 134.351562 C 159.265625 135.007812 158.980469 135.640625 158.640625 136.25 C 158.300781 136.859375 157.910156 137.425781 157.472656 137.949219 C 157.03125 138.476562 156.558594 138.921875 156.050781 139.285156 L 155.121094 138.621094 C 155.304688 138.371094 155.480469 138.082031 155.648438 137.757812 C 155.816406 137.429688 155.972656 137.085938 156.121094 136.722656 C 156.273438 136.359375 156.410156 135.980469 156.535156 135.59375 C 156.664062 135.207031 156.777344 134.820312 156.878906 134.429688 C 156.984375 134.042969 157.070312 133.664062 157.140625 133.296875 C 157.207031 132.925781 157.261719 132.582031 157.300781 132.257812 C 157.324219 132.074219 157.34375 131.871094 157.359375 131.660156 C 157.375 131.441406 157.378906 131.226562 157.371094 131.007812 C 157.363281 130.789062 157.335938 130.578125 157.289062 130.375 C 157.246094 130.167969 157.175781 129.984375 157.078125 129.816406 C 156.976562 129.644531 156.84375 129.503906 156.679688 129.390625 C 156.515625 129.277344 156.3125 129.207031 156.066406 129.175781 C 155.824219 129.148438 155.613281 129.1875 155.425781 129.292969 C 155.242188 129.402344 155.074219 129.554688 154.929688 129.742188 C 154.789062 129.933594 154.664062 130.148438 154.5625 130.398438 C 154.460938 130.644531 154.375 130.898438 154.308594 131.152344 C 154.242188 131.40625 154.183594 131.652344 154.144531 131.882812 C 154.101562 132.117188 154.070312 132.316406 154.050781 132.476562 L 153.503906 137.019531 L 150.863281 136.703125 L 151.371094 132.484375 C 151.394531 132.300781 151.421875 132.078125 151.457031 131.820312 C 151.492188 131.5625 151.519531 131.289062 151.535156 131.003906 C 151.550781 130.71875 151.550781 130.4375 151.535156 130.148438 C 151.519531 129.863281 151.472656 129.605469 151.390625 129.371094 C 151.308594 129.140625 151.183594 128.941406 151.019531 128.78125 C 150.851562 128.621094 150.632812 128.523438 150.355469 128.492188 C 150.117188 128.460938 149.914062 128.503906 149.738281 128.617188 C 149.5625 128.726562 149.410156 128.878906 149.277344 129.074219 C 149.144531 129.269531 149.035156 129.492188 148.945312 129.742188 C 148.851562 129.992188 148.773438 130.246094 148.714844 130.503906 C 148.65625 130.757812 148.609375 131 148.578125 131.234375 C 148.542969 131.46875 148.515625 131.660156 148.496094 131.808594 L 147.949219 136.351562 L 145.292969 136.03125 L 146.382812 126.96875 L 147.402344 127.09375 L 148.121094 129.320312 C 148.429688 128.617188 148.84375 128.085938 149.367188 127.730469 C 149.890625 127.378906 150.542969 127.25 151.328125 127.34375 C 152.035156 127.429688 152.601562 127.644531 153.035156 127.996094 C 153.464844 128.34375 153.769531 128.863281 153.957031 129.554688 C 154.144531 129.285156 154.34375 129.046875 154.558594 128.839844 C 154.773438 128.628906 155.003906 128.457031 155.25 128.324219 C 155.496094 128.191406 155.765625 128.09375 156.050781 128.042969 C 156.335938 127.992188 156.648438 127.984375 156.984375 128.023438 C 157.601562 128.097656 158.117188 128.261719 158.527344 128.515625 C 158.941406 128.769531 159.265625 129.089844 159.5 129.480469 C 159.734375 129.871094 159.882812 130.316406 159.949219 130.820312 C 160.015625 131.324219 160.015625 131.863281 159.949219 132.433594 Z M 159.949219 132.433594 "/>
</g>
<g clip-path="url(#clip2)" clip-rule="nonzero">
<path style=" stroke:none;fill-rule:nonzero;fill:rgb(100%,100%,100%);fill-opacity:1;" d="M 75.902344 143.484375 L 75.902344 141.066406 L 77.382812 141.066406 L 77.382812 141.339844 L 76.199219 141.339844 L 76.199219 142.113281 L 77.296875 142.113281 L 77.296875 142.378906 L 76.199219 142.378906 L 76.199219 143.210938 L 77.417969 143.210938 L 77.417969 143.484375 Z M 77.632812 143.484375 L 78.308594 142.546875 L 77.652344 141.703125 L 77.984375 141.703125 L 78.503906 142.359375 L 78.996094 141.703125 L 79.316406 141.703125 L 78.695312 142.539062 L 79.375 143.484375 L 79.042969 143.484375 L 78.5 142.730469 L 77.953125 143.484375 Z M 79.667969 144.292969 L 79.667969 142.113281 C 79.667969 142.027344 79.660156 141.902344 79.648438 141.734375 L 79.910156 141.699219 L 79.945312 141.890625 C 79.992188 141.847656 80.039062 141.8125 80.089844 141.78125 C 80.140625 141.75 80.195312 141.722656 80.257812 141.699219 C 80.316406 141.675781 80.382812 141.664062 80.449219 141.664062 C 80.546875 141.664062 80.640625 141.683594 80.726562 141.714844 C 80.8125 141.75 80.886719 141.800781 80.953125 141.875 C 81.015625 141.949219 81.066406 142.042969 81.105469 142.160156 C 81.144531 142.277344 81.164062 142.421875 81.164062 142.589844 C 81.164062 142.761719 81.136719 142.910156 81.085938 143.027344 C 81.035156 143.148438 80.96875 143.246094 80.886719 143.320312 C 80.804688 143.394531 80.714844 143.445312 80.613281 143.480469 C 80.507812 143.511719 80.40625 143.53125 80.296875 143.53125 C 80.183594 143.527344 80.070312 143.511719 79.949219 143.488281 L 79.949219 144.257812 Z M 80.296875 143.28125 C 80.398438 143.28125 80.480469 143.265625 80.554688 143.230469 C 80.625 143.191406 80.683594 143.144531 80.726562 143.082031 C 80.773438 143.019531 80.808594 142.945312 80.828125 142.867188 C 80.851562 142.785156 80.863281 142.695312 80.863281 142.605469 C 80.863281 142.523438 80.855469 142.441406 80.839844 142.355469 C 80.824219 142.273438 80.796875 142.199219 80.765625 142.136719 C 80.730469 142.070312 80.683594 142.015625 80.628906 141.976562 C 80.570312 141.933594 80.5 141.914062 80.417969 141.914062 C 80.355469 141.914062 80.300781 141.925781 80.246094 141.945312 C 80.191406 141.96875 80.140625 141.996094 80.089844 142.027344 C 80.042969 142.0625 79.996094 142.097656 79.949219 142.136719 L 79.949219 143.226562 C 79.976562 143.234375 80.003906 143.242188 80.039062 143.25 C 80.070312 143.261719 80.105469 143.265625 80.152344 143.273438 C 80.195312 143.277344 80.242188 143.28125 80.296875 143.28125 Z M 82.839844 143.203125 L 82.894531 143.441406 C 82.839844 143.457031 82.785156 143.472656 82.726562 143.484375 C 82.667969 143.496094 82.605469 143.507812 82.535156 143.515625 C 82.464844 143.523438 82.394531 143.53125 82.316406 143.53125 C 82.199219 143.53125 82.089844 143.511719 81.988281 143.480469 C 81.886719 143.445312 81.796875 143.394531 81.722656 143.320312 C 81.644531 143.246094 81.585938 143.152344 81.542969 143.035156 C 81.5 142.917969 81.476562 142.773438 81.476562 142.605469 C 81.476562 142.453125 81.5 142.316406 81.542969 142.199219 C 81.582031 142.082031 81.640625 141.984375 81.71875 141.90625 C 81.792969 141.824219 81.878906 141.765625 81.980469 141.726562 C 82.078125 141.6875 82.1875 141.664062 82.308594 141.664062 C 82.421875 141.664062 82.523438 141.6875 82.609375 141.734375 C 82.691406 141.777344 82.761719 141.839844 82.820312 141.914062 C 82.875 141.992188 82.914062 142.082031 82.941406 142.183594 C 82.96875 142.289062 82.984375 142.394531 82.984375 142.507812 L 82.929688 142.664062 L 81.785156 142.664062 C 81.785156 142.738281 81.796875 142.8125 81.8125 142.886719 C 81.832031 142.957031 81.867188 143.023438 81.910156 143.082031 C 81.957031 143.140625 82.019531 143.191406 82.09375 143.226562 C 82.167969 143.261719 82.257812 143.28125 82.371094 143.28125 C 82.441406 143.28125 82.507812 143.277344 82.566406 143.269531 C 82.625 143.261719 82.675781 143.25 82.71875 143.242188 C 82.761719 143.230469 82.804688 143.21875 82.839844 143.203125 Z M 81.796875 142.4375 L 82.6875 142.4375 C 82.6875 142.421875 82.6875 142.386719 82.679688 142.328125 C 82.671875 142.273438 82.65625 142.210938 82.628906 142.152344 C 82.601562 142.089844 82.5625 142.035156 82.507812 141.984375 C 82.453125 141.9375 82.382812 141.914062 82.292969 141.914062 C 82.191406 141.914062 82.113281 141.933594 82.046875 141.976562 C 81.984375 142.015625 81.933594 142.066406 81.894531 142.121094 C 81.859375 142.179688 81.832031 142.238281 81.816406 142.296875 C 81.804688 142.355469 81.796875 142.402344 81.796875 142.4375 Z M 83.375 143.484375 L 83.375 141.988281 C 83.375 141.933594 83.367188 141.847656 83.355469 141.734375 L 83.617188 141.699219 L 83.644531 141.957031 L 83.648438 141.957031 C 83.691406 141.902344 83.734375 141.855469 83.773438 141.816406 C 83.8125 141.773438 83.855469 141.738281 83.898438 141.710938 C 83.941406 141.679688 83.984375 141.664062 84.023438 141.664062 C 84.078125 141.664062 84.15625 141.667969 84.253906 141.683594 L 84.1875 141.957031 C 84.109375 141.941406 84.054688 141.9375 84.023438 141.9375 C 83.984375 141.9375 83.941406 141.957031 83.898438 141.996094 C 83.851562 142.035156 83.8125 142.074219 83.78125 142.117188 C 83.738281 142.167969 83.695312 142.226562 83.65625 142.292969 L 83.65625 143.484375 Z M 84.5625 143.484375 L 84.5625 141.699219 L 84.847656 141.664062 L 84.847656 143.484375 Z M 84.519531 141.191406 C 84.519531 141.136719 84.535156 141.089844 84.574219 141.054688 C 84.609375 141.019531 84.65625 141 84.710938 141 C 84.765625 141 84.8125 141.019531 84.851562 141.054688 C 84.890625 141.089844 84.910156 141.136719 84.910156 141.191406 C 84.910156 141.246094 84.890625 141.289062 84.851562 141.328125 C 84.8125 141.363281 84.765625 141.382812 84.710938 141.382812 C 84.65625 141.382812 84.609375 141.363281 84.574219 141.328125 C 84.535156 141.289062 84.519531 141.246094 84.519531 141.191406 Z M 86.621094 143.203125 L 86.675781 143.441406 C 86.621094 143.457031 86.566406 143.472656 86.507812 143.484375 C 86.449219 143.496094 86.386719 143.507812 86.316406 143.515625 C 86.246094 143.523438 86.175781 143.53125 86.097656 143.53125 C 85.980469 143.53125 85.871094 143.511719 85.769531 143.480469 C 85.667969 143.445312 85.578125 143.394531 85.503906 143.320312 C 85.425781 143.246094 85.367188 143.152344 85.324219 143.035156 C 85.28125 142.917969 85.257812 142.773438 85.257812 142.605469 C 85.257812 142.453125 85.28125 142.316406 85.324219 142.199219 C 85.363281 142.082031 85.421875 141.984375 85.496094 141.90625 C 85.570312 141.824219 85.660156 141.765625 85.757812 141.726562 C 85.859375 141.6875 85.96875 141.664062 86.085938 141.664062 C 86.203125 141.664062 86.304688 141.6875 86.390625 141.734375 C 86.472656 141.777344 86.542969 141.839844 86.597656 141.914062 C 86.65625 141.992188 86.695312 142.082031 86.722656 142.183594 C 86.75 142.289062 86.765625 142.394531 86.765625 142.507812 L 86.710938 142.664062 L 85.566406 142.664062 C 85.566406 142.738281 85.578125 142.8125 85.59375 142.886719 C 85.613281 142.957031 85.644531 143.023438 85.691406 143.082031 C 85.738281 143.140625 85.796875 143.191406 85.871094 143.226562 C 85.949219 143.261719 86.039062 143.28125 86.152344 143.28125 C 86.222656 143.28125 86.289062 143.277344 86.347656 143.269531 C 86.40625 143.261719 86.457031 143.25 86.5 143.242188 C 86.542969 143.230469 86.585938 143.21875 86.621094 143.203125 Z M 85.578125 142.4375 L 86.46875 142.4375 C 86.46875 142.421875 86.46875 142.386719 86.460938 142.328125 C 86.453125 142.273438 86.4375 142.210938 86.410156 142.152344 C 86.382812 142.089844 86.34375 142.035156 86.289062 141.984375 C 86.234375 141.9375 86.164062 141.914062 86.074219 141.914062 C 85.972656 141.914062 85.894531 141.933594 85.828125 141.976562 C 85.765625 142.015625 85.714844 142.066406 85.675781 142.121094 C 85.640625 142.179688 85.613281 142.238281 85.597656 142.296875 C 85.585938 142.355469 85.578125 142.402344 85.578125 142.4375 Z M 87.152344 143.484375 L 87.152344 142.054688 C 87.15625 142.007812 87.148438 141.898438 87.136719 141.734375 L 87.398438 141.699219 L 87.4375 141.925781 C 87.507812 141.878906 87.578125 141.835938 87.648438 141.800781 C 87.71875 141.765625 87.789062 141.734375 87.863281 141.707031 C 87.9375 141.679688 88.007812 141.664062 88.074219 141.664062 C 88.171875 141.664062 88.253906 141.675781 88.316406 141.699219 C 88.382812 141.722656 88.433594 141.757812 88.476562 141.8125 C 88.515625 141.863281 88.542969 141.929688 88.5625 142.015625 C 88.578125 142.101562 88.589844 142.207031 88.589844 142.335938 L 88.589844 143.484375 L 88.304688 143.484375 L 88.304688 142.367188 C 88.304688 142.296875 88.304688 142.234375 88.300781 142.175781 C 88.300781 142.121094 88.289062 142.074219 88.273438 142.035156 C 88.253906 141.996094 88.226562 141.96875 88.191406 141.945312 C 88.152344 141.925781 88.101562 141.914062 88.035156 141.914062 C 87.972656 141.914062 87.910156 141.925781 87.839844 141.953125 C 87.773438 141.980469 87.707031 142.011719 87.640625 142.046875 C 87.574219 142.085938 87.503906 142.125 87.4375 142.171875 L 87.4375 143.484375 Z M 90.25 141.722656 L 90.195312 141.960938 C 90.152344 141.949219 90.097656 141.941406 90.027344 141.929688 C 89.957031 141.917969 89.882812 141.914062 89.8125 141.914062 C 89.703125 141.914062 89.617188 141.933594 89.550781 141.976562 C 89.484375 142.019531 89.429688 142.074219 89.394531 142.140625 C 89.355469 142.210938 89.328125 142.285156 89.316406 142.367188 C 89.300781 142.445312 89.292969 142.527344 89.292969 142.605469 C 89.292969 142.726562 89.308594 142.828125 89.339844 142.914062 C 89.371094 143 89.410156 143.070312 89.460938 143.125 C 89.511719 143.179688 89.570312 143.21875 89.636719 143.246094 C 89.703125 143.269531 89.773438 143.28125 89.847656 143.28125 C 89.894531 143.28125 89.945312 143.277344 89.992188 143.273438 C 90.035156 143.265625 90.078125 143.261719 90.117188 143.25 C 90.15625 143.242188 90.195312 143.234375 90.230469 143.222656 L 90.285156 143.457031 C 90.238281 143.472656 90.191406 143.484375 90.148438 143.496094 C 90.105469 143.503906 90.054688 143.511719 89.996094 143.519531 C 89.941406 143.527344 89.878906 143.53125 89.8125 143.53125 C 89.679688 143.53125 89.566406 143.511719 89.464844 143.480469 C 89.363281 143.445312 89.277344 143.394531 89.207031 143.320312 C 89.136719 143.246094 89.085938 143.152344 89.046875 143.035156 C 89.011719 142.914062 88.992188 142.769531 88.992188 142.601562 C 88.992188 142.4375 89.015625 142.292969 89.0625 142.175781 C 89.109375 142.054688 89.167969 141.957031 89.246094 141.882812 C 89.320312 141.808594 89.40625 141.753906 89.503906 141.71875 C 89.601562 141.683594 89.703125 141.664062 89.8125 141.664062 C 89.867188 141.664062 89.921875 141.667969 89.976562 141.675781 C 90.03125 141.679688 90.074219 141.6875 90.117188 141.695312 C 90.164062 141.703125 90.207031 141.714844 90.25 141.722656 Z M 91.859375 143.203125 L 91.914062 143.441406 C 91.859375 143.457031 91.800781 143.472656 91.742188 143.484375 C 91.6875 143.496094 91.621094 143.507812 91.550781 143.515625 C 91.484375 143.523438 91.410156 143.53125 91.335938 143.53125 C 91.21875 143.53125 91.105469 143.511719 91.003906 143.480469 C 90.902344 143.445312 90.816406 143.394531 90.738281 143.320312 C 90.664062 143.246094 90.605469 143.152344 90.558594 143.035156 C 90.515625 142.917969 90.496094 142.773438 90.496094 142.605469 C 90.496094 142.453125 90.515625 142.316406 90.558594 142.199219 C 90.601562 142.082031 90.660156 141.984375 90.734375 141.90625 C 90.808594 141.824219 90.894531 141.765625 90.996094 141.726562 C 91.097656 141.6875 91.207031 141.664062 91.324219 141.664062 C 91.441406 141.664062 91.539062 141.6875 91.625 141.734375 C 91.710938 141.777344 91.78125 141.839844 91.835938 141.914062 C 91.890625 141.992188 91.933594 142.082031 91.960938 142.183594 C 91.988281 142.289062 92 142.394531 92 142.507812 L 91.949219 142.664062 L 90.804688 142.664062 C 90.804688 142.738281 90.8125 142.8125 90.832031 142.886719 C 90.851562 142.957031 90.882812 143.023438 90.929688 143.082031 C 90.976562 143.140625 91.035156 143.191406 91.109375 143.226562 C 91.183594 143.261719 91.277344 143.28125 91.386719 143.28125 C 91.460938 143.28125 91.523438 143.277344 91.582031 143.269531 C 91.640625 143.261719 91.695312 143.25 91.738281 143.242188 C 91.78125 143.230469 91.820312 143.21875 91.859375 143.203125 Z M 90.8125 142.4375 L 91.707031 142.4375 C 91.707031 142.421875 91.703125 142.386719 91.695312 142.328125 C 91.691406 142.273438 91.671875 142.210938 91.648438 142.152344 C 91.621094 142.089844 91.582031 142.035156 91.527344 141.984375 C 91.472656 141.9375 91.398438 141.914062 91.308594 141.914062 C 91.210938 141.914062 91.128906 141.933594 91.066406 141.976562 C 91.003906 142.015625 90.953125 142.066406 90.914062 142.121094 C 90.875 142.179688 90.851562 142.238281 90.835938 142.296875 C 90.820312 142.355469 90.8125 142.402344 90.8125 142.4375 Z M 93.328125 141.207031 L 93.613281 141.167969 L 93.613281 141.703125 L 94.125 141.703125 L 94.125 141.929688 L 93.613281 141.929688 L 93.613281 142.878906 C 93.613281 142.957031 93.613281 143.019531 93.617188 143.074219 C 93.621094 143.125 93.628906 143.164062 93.640625 143.195312 C 93.652344 143.226562 93.667969 143.25 93.691406 143.261719 C 93.710938 143.273438 93.738281 143.28125 93.773438 143.28125 C 93.863281 143.28125 93.964844 143.246094 94.085938 143.183594 L 94.167969 143.398438 C 94.089844 143.449219 94.019531 143.484375 93.953125 143.503906 C 93.882812 143.519531 93.816406 143.53125 93.75 143.53125 C 93.59375 143.53125 93.484375 143.484375 93.421875 143.398438 C 93.359375 143.308594 93.328125 143.160156 93.328125 142.957031 L 93.328125 141.929688 L 93.003906 141.929688 L 93.003906 141.703125 L 93.328125 141.703125 Z M 94.488281 143.484375 L 94.488281 140.828125 L 94.773438 140.796875 L 94.773438 141.925781 C 94.84375 141.878906 94.914062 141.835938 94.984375 141.800781 C 95.050781 141.765625 95.125 141.734375 95.195312 141.707031 C 95.269531 141.679688 95.339844 141.664062 95.410156 141.664062 C 95.507812 141.664062 95.585938 141.675781 95.652344 141.699219 C 95.71875 141.722656 95.769531 141.757812 95.808594 141.8125 C 95.851562 141.863281 95.878906 141.929688 95.898438 142.015625 C 95.914062 142.101562 95.921875 142.207031 95.921875 142.335938 L 95.921875 143.484375 L 95.640625 143.484375 L 95.640625 142.367188 C 95.640625 142.296875 95.640625 142.234375 95.636719 142.175781 C 95.632812 142.121094 95.625 142.074219 95.605469 142.035156 C 95.589844 141.996094 95.5625 141.96875 95.523438 141.945312 C 95.488281 141.925781 95.4375 141.914062 95.371094 141.914062 C 95.308594 141.914062 95.242188 141.925781 95.171875 141.953125 C 95.101562 141.980469 95.035156 142.011719 94.96875 142.046875 C 94.90625 142.085938 94.839844 142.125 94.773438 142.171875 L 94.773438 143.484375 Z M 97.6875 143.203125 L 97.742188 143.441406 C 97.6875 143.457031 97.628906 143.472656 97.574219 143.484375 C 97.515625 143.496094 97.453125 143.507812 97.382812 143.515625 C 97.3125 143.523438 97.238281 143.53125 97.164062 143.53125 C 97.046875 143.53125 96.9375 143.511719 96.835938 143.480469 C 96.734375 143.445312 96.644531 143.394531 96.566406 143.320312 C 96.492188 143.246094 96.433594 143.152344 96.390625 143.035156 C 96.34375 142.917969 96.324219 142.773438 96.324219 142.605469 C 96.324219 142.453125 96.34375 142.316406 96.386719 142.199219 C 96.429688 142.082031 96.488281 141.984375 96.5625 141.90625 C 96.636719 141.824219 96.726562 141.765625 96.824219 141.726562 C 96.925781 141.6875 97.035156 141.664062 97.152344 141.664062 C 97.269531 141.664062 97.371094 141.6875 97.453125 141.734375 C 97.539062 141.777344 97.609375 141.839844 97.664062 141.914062 C 97.71875 141.992188 97.761719 142.082031 97.789062 142.183594 C 97.816406 142.289062 97.828125 142.394531 97.828125 142.507812 L 97.777344 142.664062 L 96.632812 142.664062 C 96.632812 142.738281 96.640625 142.8125 96.660156 142.886719 C 96.679688 142.957031 96.710938 143.023438 96.757812 143.082031 C 96.804688 143.140625 96.863281 143.191406 96.9375 143.226562 C 97.011719 143.261719 97.105469 143.28125 97.21875 143.28125 C 97.289062 143.28125 97.351562 143.277344 97.410156 143.269531 C 97.472656 143.261719 97.523438 143.25 97.566406 143.242188 C 97.609375 143.230469 97.648438 143.21875 97.6875 143.203125 Z M 96.644531 142.4375 L 97.535156 142.4375 C 97.535156 142.421875 97.53125 142.386719 97.523438 142.328125 C 97.519531 142.273438 97.5 142.210938 97.476562 142.152344 C 97.449219 142.089844 97.410156 142.035156 97.355469 141.984375 C 97.300781 141.9375 97.230469 141.914062 97.140625 141.914062 C 97.039062 141.914062 96.957031 141.933594 96.894531 141.976562 C 96.832031 142.015625 96.78125 142.066406 96.742188 142.121094 C 96.703125 142.179688 96.679688 142.238281 96.664062 142.296875 C 96.648438 142.355469 96.644531 142.402344 96.644531 142.4375 Z M 99.082031 143.484375 L 99.082031 141.066406 L 99.382812 141.066406 L 99.382812 143.484375 Z M 99.953125 143.484375 L 99.953125 142.023438 C 99.953125 141.945312 99.945312 141.847656 99.929688 141.734375 L 100.195312 141.699219 L 100.234375 141.921875 C 100.300781 141.875 100.363281 141.832031 100.421875 141.796875 C 100.484375 141.761719 100.550781 141.730469 100.621094 141.703125 C 100.691406 141.679688 100.765625 141.664062 100.835938 141.664062 C 100.957031 141.664062 101.050781 141.6875 101.117188 141.726562 C 101.1875 141.769531 101.238281 141.839844 101.269531 141.9375 C 101.367188 141.871094 101.46875 141.808594 101.574219 141.75 C 101.679688 141.695312 101.789062 141.664062 101.902344 141.664062 C 101.988281 141.664062 102.0625 141.675781 102.125 141.699219 C 102.183594 141.722656 102.234375 141.757812 102.273438 141.8125 C 102.3125 141.863281 102.335938 141.929688 102.355469 142.015625 C 102.371094 142.101562 102.378906 142.207031 102.378906 142.335938 L 102.378906 143.484375 L 102.097656 143.484375 L 102.097656 142.367188 C 102.097656 142.296875 102.09375 142.234375 102.09375 142.175781 C 102.089844 142.121094 102.082031 142.074219 102.066406 142.035156 C 102.054688 141.996094 102.03125 141.96875 102 141.945312 C 101.964844 141.925781 101.921875 141.914062 101.863281 141.914062 C 101.808594 141.914062 101.757812 141.921875 101.707031 141.9375 C 101.660156 141.953125 101.609375 141.972656 101.558594 142.003906 C 101.503906 142.03125 101.425781 142.089844 101.316406 142.175781 L 101.316406 143.484375 L 101.03125 143.484375 L 101.03125 142.367188 C 101.03125 142.296875 101.03125 142.234375 101.027344 142.175781 C 101.027344 142.121094 101.019531 142.074219 101.003906 142.035156 C 100.988281 141.996094 100.96875 141.96875 100.933594 141.945312 C 100.902344 141.925781 100.859375 141.914062 100.796875 141.914062 C 100.738281 141.914062 100.671875 141.925781 100.605469 141.953125 C 100.542969 141.980469 100.480469 142.007812 100.417969 142.046875 C 100.359375 142.082031 100.300781 142.121094 100.234375 142.167969 L 100.234375 143.484375 Z M 102.882812 143.484375 L 102.882812 142.023438 C 102.882812 141.945312 102.875 141.847656 102.859375 141.734375 L 103.125 141.699219 L 103.164062 141.921875 C 103.230469 141.875 103.292969 141.832031 103.355469 141.796875 C 103.414062 141.761719 103.480469 141.730469 103.550781 141.703125 C 103.621094 141.679688 103.695312 141.664062 103.769531 141.664062 C 103.886719 141.664062 103.980469 141.6875 104.046875 141.726562 C 104.117188 141.769531 104.167969 141.839844 104.199219 141.9375 C 104.296875 141.871094 104.398438 141.808594 104.503906 141.75 C 104.609375 141.695312 104.71875 141.664062 104.832031 141.664062 C 104.917969 141.664062 104.992188 141.675781 105.054688 141.699219 C 105.117188 141.722656 105.164062 141.757812 105.203125 141.8125 C 105.242188 141.863281 105.269531 141.929688 105.285156 142.015625 C 105.300781 142.101562 105.308594 142.207031 105.308594 142.335938 L 105.308594 143.484375 L 105.027344 143.484375 L 105.027344 142.367188 C 105.027344 142.296875 105.023438 142.234375 105.023438 142.175781 C 105.019531 142.121094 105.011719 142.074219 104.996094 142.035156 C 104.984375 141.996094 104.960938 141.96875 104.929688 141.945312 C 104.898438 141.925781 104.851562 141.914062 104.792969 141.914062 C 104.738281 141.914062 104.6875 141.921875 104.636719 141.9375 C 104.589844 141.953125 104.539062 141.972656 104.488281 142.003906 C 104.4375 142.03125 104.355469 142.089844 104.246094 142.175781 L 104.246094 143.484375 L 103.964844 143.484375 L 103.964844 142.367188 C 103.964844 142.296875 103.960938 142.234375 103.960938 142.175781 C 103.957031 142.121094 103.949219 142.074219 103.933594 142.035156 C 103.921875 141.996094 103.898438 141.96875 103.867188 141.945312 C 103.832031 141.925781 103.789062 141.914062 103.730469 141.914062 C 103.667969 141.914062 103.605469 141.925781 103.539062 141.953125 C 103.472656 141.980469 103.410156 142.007812 103.351562 142.046875 C 103.292969 142.082031 103.230469 142.121094 103.164062 142.167969 L 103.164062 143.484375 Z M 107.074219 143.203125 L 107.128906 143.441406 C 107.074219 143.457031 107.015625 143.472656 106.960938 143.484375 C 106.902344 143.496094 106.835938 143.507812 106.769531 143.515625 C 106.699219 143.523438 106.625 143.53125 106.550781 143.53125 C 106.433594 143.53125 106.320312 143.511719 106.21875 143.480469 C 106.117188 143.445312 106.03125 143.394531 105.953125 143.320312 C 105.878906 143.246094 105.820312 143.152344 105.777344 143.035156 C 105.730469 142.917969 105.710938 142.773438 105.710938 142.605469 C 105.710938 142.453125 105.730469 142.316406 105.773438 142.199219 C 105.816406 142.082031 105.875 141.984375 105.949219 141.90625 C 106.023438 141.824219 106.109375 141.765625 106.210938 141.726562 C 106.3125 141.6875 106.421875 141.664062 106.539062 141.664062 C 106.65625 141.664062 106.753906 141.6875 106.839844 141.734375 C 106.925781 141.777344 106.996094 141.839844 107.050781 141.914062 C 107.105469 141.992188 107.148438 142.082031 107.175781 142.183594 C 107.203125 142.289062 107.214844 142.394531 107.214844 142.507812 L 107.164062 142.664062 L 106.019531 142.664062 C 106.019531 142.738281 106.027344 142.8125 106.046875 142.886719 C 106.066406 142.957031 106.097656 143.023438 106.144531 143.082031 C 106.191406 143.140625 106.25 143.191406 106.324219 143.226562 C 106.398438 143.261719 106.492188 143.28125 106.601562 143.28125 C 106.675781 143.28125 106.738281 143.277344 106.796875 143.269531 C 106.855469 143.261719 106.910156 143.25 106.953125 143.242188 C 106.996094 143.230469 107.035156 143.21875 107.074219 143.203125 Z M 106.027344 142.4375 L 106.921875 142.4375 C 106.921875 142.421875 106.917969 142.386719 106.910156 142.328125 C 106.90625 142.273438 106.886719 142.210938 106.863281 142.152344 C 106.835938 142.089844 106.796875 142.035156 106.742188 141.984375 C 106.6875 141.9375 106.613281 141.914062 106.523438 141.914062 C 106.425781 141.914062 106.34375 141.933594 106.28125 141.976562 C 106.21875 142.015625 106.167969 142.066406 106.128906 142.121094 C 106.089844 142.179688 106.066406 142.238281 106.050781 142.296875 C 106.035156 142.355469 106.027344 142.402344 106.027344 142.4375 Z M 107.605469 143.484375 L 107.605469 141.988281 C 107.605469 141.933594 107.597656 141.847656 107.585938 141.734375 L 107.851562 141.699219 L 107.878906 141.957031 L 107.882812 141.957031 C 107.925781 141.902344 107.964844 141.855469 108.003906 141.816406 C 108.046875 141.773438 108.089844 141.738281 108.132812 141.710938 C 108.175781 141.679688 108.21875 141.664062 108.257812 141.664062 C 108.3125 141.664062 108.386719 141.667969 108.484375 141.683594 L 108.421875 141.957031 C 108.34375 141.941406 108.289062 141.9375 108.257812 141.9375 C 108.21875 141.9375 108.175781 141.957031 108.128906 141.996094 C 108.085938 142.035156 108.046875 142.074219 108.011719 142.117188 C 107.96875 142.167969 107.929688 142.226562 107.890625 142.292969 L 107.890625 143.484375 Z M 109.808594 141.742188 L 109.761719 141.992188 C 109.660156 141.960938 109.574219 141.941406 109.496094 141.929688 C 109.417969 141.917969 109.347656 141.914062 109.285156 141.914062 C 109.203125 141.914062 109.132812 141.933594 109.078125 141.972656 C 109.023438 142.015625 108.996094 142.066406 108.996094 142.128906 C 108.996094 142.1875 109.023438 142.234375 109.070312 142.273438 C 109.117188 142.316406 109.171875 142.351562 109.234375 142.382812 C 109.296875 142.414062 109.367188 142.449219 109.441406 142.488281 C 109.519531 142.527344 109.589844 142.566406 109.660156 142.617188 C 109.726562 142.664062 109.78125 142.71875 109.824219 142.785156 C 109.867188 142.851562 109.886719 142.929688 109.890625 143.023438 C 109.886719 143.121094 109.867188 143.203125 109.824219 143.269531 C 109.785156 143.335938 109.730469 143.386719 109.667969 143.425781 C 109.601562 143.464844 109.53125 143.492188 109.457031 143.507812 C 109.378906 143.523438 109.308594 143.53125 109.242188 143.53125 C 109.15625 143.53125 109.070312 143.523438 108.980469 143.515625 C 108.886719 143.507812 108.789062 143.484375 108.6875 143.457031 L 108.738281 143.199219 C 108.84375 143.230469 108.941406 143.25 109.03125 143.261719 C 109.117188 143.273438 109.1875 143.28125 109.246094 143.28125 C 109.289062 143.28125 109.332031 143.277344 109.371094 143.269531 C 109.414062 143.257812 109.449219 143.246094 109.484375 143.226562 C 109.515625 143.210938 109.542969 143.1875 109.5625 143.15625 C 109.582031 143.128906 109.59375 143.097656 109.59375 143.0625 C 109.589844 142.996094 109.570312 142.941406 109.527344 142.894531 C 109.484375 142.847656 109.429688 142.804688 109.363281 142.769531 C 109.292969 142.734375 109.222656 142.695312 109.144531 142.660156 C 109.070312 142.625 108.996094 142.582031 108.929688 142.53125 C 108.863281 142.484375 108.804688 142.425781 108.761719 142.359375 C 108.714844 142.292969 108.691406 142.207031 108.691406 142.109375 C 108.691406 142.039062 108.710938 141.976562 108.75 141.917969 C 108.785156 141.863281 108.832031 141.816406 108.890625 141.78125 C 108.949219 141.746094 109.011719 141.714844 109.082031 141.695312 C 109.152344 141.675781 109.21875 141.664062 109.285156 141.664062 C 109.355469 141.664062 109.429688 141.671875 109.515625 141.679688 C 109.601562 141.691406 109.699219 141.710938 109.808594 141.742188 Z M 110.273438 143.484375 L 110.273438 141.699219 L 110.558594 141.664062 L 110.558594 143.484375 Z M 110.226562 141.191406 C 110.226562 141.136719 110.246094 141.089844 110.28125 141.054688 C 110.320312 141.019531 110.363281 141 110.417969 141 C 110.476562 141 110.523438 141.019531 110.5625 141.054688 C 110.601562 141.089844 110.621094 141.136719 110.621094 141.191406 C 110.621094 141.246094 110.601562 141.289062 110.5625 141.328125 C 110.523438 141.363281 110.476562 141.382812 110.417969 141.382812 C 110.363281 141.382812 110.320312 141.363281 110.28125 141.328125 C 110.246094 141.289062 110.226562 141.246094 110.226562 141.191406 Z M 111.503906 143.484375 L 110.847656 141.703125 L 111.160156 141.703125 L 111.59375 142.960938 L 111.667969 143.238281 L 111.671875 143.238281 L 111.753906 142.960938 L 112.214844 141.703125 L 112.511719 141.703125 L 111.824219 143.484375 Z M 114.046875 143.203125 L 114.101562 143.441406 C 114.046875 143.457031 113.988281 143.472656 113.933594 143.484375 C 113.875 143.496094 113.808594 143.507812 113.742188 143.515625 C 113.671875 143.523438 113.597656 143.53125 113.523438 143.53125 C 113.40625 143.53125 113.292969 143.511719 113.191406 143.480469 C 113.089844 143.445312 113.003906 143.394531 112.925781 143.320312 C 112.851562 143.246094 112.792969 143.152344 112.75 143.035156 C 112.703125 142.917969 112.683594 142.773438 112.683594 142.605469 C 112.683594 142.453125 112.703125 142.316406 112.746094 142.199219 C 112.789062 142.082031 112.847656 141.984375 112.921875 141.90625 C 112.996094 141.824219 113.082031 141.765625 113.183594 141.726562 C 113.285156 141.6875 113.394531 141.664062 113.511719 141.664062 C 113.628906 141.664062 113.726562 141.6875 113.8125 141.734375 C 113.898438 141.777344 113.96875 141.839844 114.023438 141.914062 C 114.078125 141.992188 114.121094 142.082031 114.148438 142.183594 C 114.175781 142.289062 114.1875 142.394531 114.1875 142.507812 L 114.136719 142.664062 L 112.992188 142.664062 C 112.992188 142.738281 113 142.8125 113.019531 142.886719 C 113.039062 142.957031 113.070312 143.023438 113.117188 143.082031 C 113.164062 143.140625 113.222656 143.191406 113.296875 143.226562 C 113.371094 143.261719 113.464844 143.28125 113.574219 143.28125 C 113.648438 143.28125 113.710938 143.277344 113.769531 143.269531 C 113.828125 143.261719 113.882812 143.25 113.925781 143.242188 C 113.96875 143.230469 114.007812 143.21875 114.046875 143.203125 Z M 113 142.4375 L 113.894531 142.4375 C 113.894531 142.421875 113.890625 142.386719 113.882812 142.328125 C 113.875 142.273438 113.859375 142.210938 113.835938 142.152344 C 113.808594 142.089844 113.769531 142.035156 113.714844 141.984375 C 113.660156 141.9375 113.585938 141.914062 113.496094 141.914062 C 113.398438 141.914062 113.316406 141.933594 113.253906 141.976562 C 113.1875 142.015625 113.136719 142.066406 113.101562 142.121094 C 113.0625 142.179688 113.035156 142.238281 113.023438 142.296875 C 113.007812 142.355469 113 142.402344 113 142.4375 Z M 115.789062 143.484375 L 115.230469 141.066406 L 115.53125 141.066406 L 116 143.199219 L 116.003906 143.199219 L 116.625 141.066406 L 117 141.066406 L 117.613281 143.199219 L 117.617188 143.199219 L 118.078125 141.066406 L 118.378906 141.066406 L 117.824219 143.484375 L 117.449219 143.484375 L 116.8125 141.355469 L 116.808594 141.355469 L 116.167969 143.484375 Z M 118.863281 142.601562 C 118.863281 142.832031 118.914062 143 119.015625 143.113281 C 119.117188 143.226562 119.257812 143.28125 119.433594 143.28125 C 119.605469 143.28125 119.738281 143.226562 119.835938 143.113281 C 119.933594 143.003906 119.980469 142.835938 119.980469 142.617188 C 119.980469 142.378906 119.929688 142.203125 119.828125 142.085938 C 119.726562 141.972656 119.585938 141.914062 119.40625 141.914062 C 119.230469 141.914062 119.09375 141.972656 119.003906 142.085938 C 118.910156 142.199219 118.863281 142.371094 118.863281 142.601562 Z M 118.5625 142.597656 C 118.5625 142.417969 118.589844 142.269531 118.644531 142.148438 C 118.703125 142.03125 118.773438 141.933594 118.863281 141.863281 C 118.949219 141.789062 119.042969 141.738281 119.144531 141.710938 C 119.246094 141.679688 119.339844 141.664062 119.429688 141.664062 C 119.515625 141.664062 119.605469 141.679688 119.707031 141.707031 C 119.808594 141.734375 119.898438 141.78125 119.984375 141.851562 C 120.070312 141.921875 120.140625 142.015625 120.199219 142.132812 C 120.253906 142.25 120.28125 142.398438 120.28125 142.578125 C 120.28125 142.761719 120.253906 142.917969 120.195312 143.039062 C 120.136719 143.164062 120.066406 143.261719 119.976562 143.332031 C 119.890625 143.40625 119.796875 143.457031 119.695312 143.484375 C 119.59375 143.515625 119.5 143.53125 119.410156 143.53125 C 119.320312 143.53125 119.226562 143.515625 119.128906 143.488281 C 119.027344 143.457031 118.9375 143.410156 118.855469 143.339844 C 118.769531 143.269531 118.699219 143.175781 118.644531 143.054688 C 118.589844 142.933594 118.5625 142.78125 118.5625 142.597656 Z M 120.699219 143.484375 L 120.699219 141.988281 C 120.699219 141.933594 120.691406 141.847656 120.679688 141.734375 L 120.941406 141.699219 L 120.96875 141.957031 L 120.972656 141.957031 C 121.015625 141.902344 121.058594 141.855469 121.097656 141.816406 C 121.136719 141.773438 121.179688 141.738281 121.222656 141.710938 C 121.269531 141.679688 121.308594 141.664062 121.351562 141.664062 C 121.402344 141.664062 121.480469 141.667969 121.578125 141.683594 L 121.511719 141.957031 C 121.433594 141.941406 121.378906 141.9375 121.351562 141.9375 C 121.308594 141.9375 121.265625 141.957031 121.222656 141.996094 C 121.175781 142.035156 121.136719 142.074219 121.105469 142.117188 C 121.0625 142.167969 121.019531 142.226562 120.980469 142.292969 L 120.980469 143.484375 Z M 121.886719 143.484375 L 121.886719 140.828125 L 122.171875 140.796875 L 122.171875 143.484375 Z M 123.792969 143.09375 L 123.792969 141.96875 C 123.710938 141.945312 123.644531 141.929688 123.597656 141.921875 C 123.550781 141.917969 123.5 141.914062 123.449219 141.914062 C 123.351562 141.914062 123.265625 141.929688 123.195312 141.96875 C 123.125 142.003906 123.066406 142.050781 123.019531 142.113281 C 122.972656 142.175781 122.941406 142.25 122.917969 142.328125 C 122.898438 142.410156 122.886719 142.5 122.886719 142.589844 C 122.886719 142.671875 122.894531 142.757812 122.914062 142.839844 C 122.933594 142.921875 122.960938 142.996094 122.996094 143.0625 C 123.035156 143.128906 123.082031 143.179688 123.136719 143.222656 C 123.191406 143.261719 123.253906 143.28125 123.332031 143.28125 C 123.382812 143.28125 123.4375 143.273438 123.492188 143.253906 C 123.546875 143.234375 123.597656 143.210938 123.644531 143.1875 C 123.691406 143.164062 123.742188 143.132812 123.792969 143.09375 Z M 123.828125 143.511719 L 123.796875 143.34375 C 123.742188 143.378906 123.691406 143.410156 123.640625 143.4375 C 123.589844 143.460938 123.535156 143.484375 123.472656 143.5 C 123.414062 143.519531 123.355469 143.53125 123.296875 143.53125 C 123.078125 143.53125 122.902344 143.449219 122.777344 143.292969 C 122.648438 143.136719 122.585938 142.90625 122.585938 142.605469 C 122.585938 142.425781 122.613281 142.273438 122.671875 142.15625 C 122.730469 142.035156 122.804688 141.9375 122.890625 141.867188 C 122.980469 141.792969 123.074219 141.742188 123.171875 141.710938 C 123.273438 141.679688 123.367188 141.664062 123.449219 141.664062 C 123.492188 141.664062 123.539062 141.667969 123.585938 141.675781 C 123.632812 141.679688 123.703125 141.695312 123.792969 141.71875 L 123.792969 140.828125 L 124.078125 140.796875 L 124.078125 143.160156 C 124.078125 143.195312 124.078125 143.230469 124.078125 143.265625 C 124.082031 143.300781 124.082031 143.339844 124.085938 143.375 C 124.089844 143.410156 124.09375 143.445312 124.097656 143.484375 Z M 123.828125 143.511719 "/>
</g>
<g clip-path="url(#clip3)" clip-rule="nonzero">
<path style=" stroke:none;fill-rule:nonzero;fill:rgb(100%,100%,100%);fill-opacity:1;" d="M 93.515625 82.394531 L 91.273438 85.488281 L 87.40625 86.648438 L 86.558594 87.808594 L 85.894531 87.65625 C 83.527344 90.695312 82.101562 94.511719 82.101562 98.664062 C 82.101562 100.191406 82.316406 101.664062 82.675781 103.078125 L 86.324219 106.058594 L 85.234375 108.789062 C 88.46875 113.515625 93.898438 116.621094 100.058594 116.621094 C 109.300781 116.621094 116.902344 109.636719 117.898438 100.660156 L 116.40625 97.78125 L 114.007812 99.792969 L 113.546875 102.269531 L 111.378906 97.9375 L 108.597656 97.242188 L 108.058594 98.867188 L 104.964844 100.800781 L 106.894531 101.339844 L 103.957031 105.828125 L 103.800781 109.074219 L 101.40625 113.019531 L 98.851562 113.636719 C 98.851562 113.636719 97.152344 108.921875 97.230469 108.6875 C 97.304688 108.457031 96.917969 103.351562 96.6875 103.199219 C 96.457031 103.042969 92.125 102.65625 92.125 102.65625 L 90.347656 97.863281 L 93.359375 94.148438 L 92.511719 92.292969 L 93.980469 91.132812 L 96.765625 88.734375 L 96.222656 87.5 L 99.238281 84.714844 L 101.871094 85.332031 L 109.820312 83.609375 C 107.011719 81.78125 103.660156 80.707031 100.058594 80.707031 C 97.351562 80.707031 94.800781 81.324219 92.5 82.394531 Z M 100.015625 82.703125 L 98.3125 83.863281 L 97.617188 82.703125 Z M 90.964844 86.648438 L 92.203125 85.953125 L 92.511719 86.800781 Z M 94.34375 87.550781 L 95.246094 89.53125 L 94.082031 90.1875 L 93.050781 89.765625 L 93.457031 88.847656 L 93.617188 87.757812 Z M 94.34375 87.550781 "/>
</g>
<path style=" stroke:none;fill-rule:nonzero;fill:rgb(100%,100%,100%);fill-opacity:1;" d="M 93.980469 93.992188 L 96.457031 93.789062 L 96.878906 94.617188 L 99.433594 94.949219 L 102.3125 95.429688 L 102.902344 93.832031 L 99.851562 93.65625 L 98.507812 92.136719 L 98.824219 93.21875 L 97.953125 93.941406 L 97.953125 93.425781 L 96.109375 92.121094 Z M 93.980469 93.992188 "/>
<path style=" stroke:none;fill-rule:nonzero;fill:rgb(100%,100%,100%);fill-opacity:1;" d="M 99.78125 86.214844 L 98.496094 86.988281 L 98.238281 88.015625 L 97.261719 89.042969 L 100.085938 88.375 Z M 99.78125 86.214844 "/>
<path style=" stroke:none;fill-rule:nonzero;fill:rgb(100%,100%,100%);fill-opacity:1;" d="M 104.027344 92.078125 L 101.644531 90.929688 L 101.058594 92.484375 L 103.621094 92.691406 Z M 104.027344 92.078125 "/>
</g>
</svg>
